<?xml version="1.0" encoding="utf-8"?>
<!-- Generator: Adobe Illustrator 21.0.0, SVG Export Plug-In . SVG Version: 6.00 Build 0)  -->
<svg version="1.1" id="Layer_1" xmlns="http://www.w3.org/2000/svg" xmlns:xlink="http://www.w3.org/1999/xlink" x="0px" y="0px"
	 viewBox="0 0 10.4 20.6" enable-background="new 0 0 10.4 20.6" xml:space="preserve">
<path id="facebook" d="M0.3,11h2.3v9.3c0,0.2,0.1,0.3,0.3,0.3h3.8c0.2,0,0.3-0.1,0.3-0.3V11h2.6
	c0.2,0,0.3-0.1,0.3-0.3l0.4-3.4c0-0.2-0.1-0.3-0.3-0.4c0,0,0,0,0,0h-3V4.8c0-0.6,0.3-1,1-1h2c0.2,0,0.3-0.1,0.3-0.3V0.3
	c0-0.2-0.1-0.3-0.3-0.3H7.4c0,0-0.1,0-0.1,0C6,0,4.8,0.5,3.9,1.3C3,2.1,2.5,3.2,2.7,4.4v2.5H0.3C0.1,6.9,0,7.1,0,7.3v0v3.4
	C0,10.8,0.1,11,0.3,11z"/>
</svg>
