<?xml version="1.0" encoding="utf-8"?>
<!-- Generator: Adobe Illustrator 21.0.0, SVG Export Plug-In . SVG Version: 6.00 Build 0)  -->
<svg version="1.1" id="linkedin" xmlns="http://www.w3.org/2000/svg" xmlns:xlink="http://www.w3.org/1999/xlink" x="0px" y="0px"
	 viewBox="0 0 17.5 17.2" enable-background="new 0 0 17.5 17.2" xml:space="preserve">
<path id="Path_3105" d="M2.1,0c1.2,0,2.1,0.9,2.1,2.1S3.3,4.2,2.1,4.2S0,3.3,0,2.1S0.9,0,2.1,0"/>
<path id="Path_3106" d="M3.3,17.2H0.9c-0.3,0-0.6-0.3-0.6-0.6V6c0-0.3,0.2-0.6,0.6-0.6c0,0,0,0,0,0h2.4
	c0.3,0,0.6,0.3,0.6,0.6v10.6C3.9,17,3.6,17.2,3.3,17.2"/>
<path id="Path_3107" d="M17.5,9.1c0.1-2.1-1.6-3.9-3.7-4c0,0-0.1,0-0.1,0H13c-1.2,0-2.3,0.5-3,1.5L9.6,6.9V5.7
	c0-0.2-0.1-0.3-0.3-0.3h-3C6.2,5.4,6,5.6,6,5.7V17c0,0.1,0.2,0.2,0.3,0.2h3.3c0.1,0,0.3-0.1,0.3-0.2v-6.5c0-1.1,0.8-2,1.9-2.1
	c0.6,0,1.1,0.2,1.5,0.6c0.4,0.4,0.5,0.9,0.5,1.4v6.5c0,0.2,0.1,0.3,0.3,0.3h3c0.2,0,0.3-0.1,0.3-0.3L17.5,9.1L17.5,9.1z"/>
</svg>
