<?xml version="1.0" encoding="utf-8"?>
<!-- Generator: Adobe Illustrator 21.0.0, SVG Export Plug-In . SVG Version: 6.00 Build 0)  -->
<svg version="1.1" id="Layer_1" xmlns="http://www.w3.org/2000/svg" xmlns:xlink="http://www.w3.org/1999/xlink" x="0px" y="0px"
	 viewBox="0 0 21.1 18.4" enable-background="new 0 0 21.1 18.4" xml:space="preserve">
<path id="XMLID_497_" d="M0.4,8.8l4.9,1.8l1.9,6.1c0.1,0.3,0.4,0.5,0.7,0.4C7.9,17.1,8,17,8,17l2.7-2.2
	c0.3-0.2,0.7-0.2,1,0l4.9,3.6c0.3,0.2,0.6,0.1,0.8-0.1c0-0.1,0.1-0.1,0.1-0.2l3.6-17.3C21.2,0.4,21,0.1,20.7,0c-0.1,0-0.2,0-0.3,0
	l-20,7.7C0.1,7.9-0.1,8.2,0,8.5C0.1,8.6,0.2,8.8,0.4,8.8z M6.8,9.7l9.5-5.9c0.1,0,0.2,0,0.2,0.1c0,0.1,0,0.2,0,0.2l-7.9,7.3
	c-0.3,0.3-0.5,0.6-0.5,1l-0.3,2c0,0.1-0.1,0.2-0.3,0.2c-0.1,0-0.2-0.1-0.2-0.2l-1-3.6C6.3,10.3,6.5,9.9,6.8,9.7L6.8,9.7z"/>
</svg>
