<?xml version="1.0" encoding="utf-8"?>
<!-- Generator: Adobe Illustrator 21.0.0, SVG Export Plug-In . SVG Version: 6.00 Build 0)  -->
<svg version="1.1" id="Layer_1" xmlns="http://www.w3.org/2000/svg" xmlns:xlink="http://www.w3.org/1999/xlink" x="0px" y="0px"
	 viewBox="0 0 20.8 17.3" enable-background="new 0 0 20.8 17.3" xml:space="preserve">
<path id="twitter_1_" d="M20.5,2C20,2.2,19.5,2.4,19,2.5c0.5-0.5,1-1.2,1.2-1.9l0,0c0-0.1,0-0.3-0.2-0.3
	c-0.1,0-0.1,0-0.2,0l0,0c-0.7,0.4-1.4,0.7-2.2,0.9c0,0-0.1,0-0.1,0c-0.1,0-0.3-0.1-0.4-0.1c-0.8-0.7-1.9-1.1-3-1.1
	c-0.5,0-1,0.1-1.4,0.2c-1.5,0.5-2.6,1.6-2.9,3.1C9.7,3.9,9.7,4.4,9.7,5c0,0,0,0.1,0,0.1c0,0-0.1,0.1-0.1,0.1h0
	C6.4,4.9,3.5,3.3,1.5,0.9l0,0c-0.1-0.1-0.2-0.1-0.3,0c0,0,0,0-0.1,0.1l0,0c-1,1.8-0.7,4,0.7,5.4c-0.4-0.1-0.7-0.2-1-0.4l0,0
	C0.7,5.9,0.5,5.9,0.5,6c0,0,0,0.1,0,0.1l0,0c0,1.8,1,3.4,2.6,4.1H3c-0.3,0-0.5,0-0.8-0.1l0,0c-0.1,0-0.2,0.1-0.3,0.2
	c0,0,0,0.1,0,0.1l0,0c0.5,1.6,1.9,2.8,3.6,3.1c-1.4,0.9-3,1.4-4.6,1.4H0.3c-0.2,0-0.3,0.1-0.3,0.3c0,0.2,0,0.3,0.2,0.4
	c1.9,1.1,4,1.7,6.2,1.7c1.8,0,3.6-0.4,5.3-1.1c1.5-0.7,2.8-1.7,3.9-2.9c1-1.2,1.8-2.5,2.4-4c0.5-1.4,0.8-2.9,0.8-4.3V4.9
	c0-0.2,0.1-0.4,0.3-0.6c0.7-0.6,1.3-1.2,1.8-2l0,0c0.1-0.1,0-0.3-0.1-0.3C20.6,2,20.5,2,20.5,2L20.5,2z"/>
</svg>
